<?xml version="1.0" encoding="UTF-8" standalone="no"?>
<!DOCTYPE svg PUBLIC "-//W3C//DTD SVG 20010904//EN"
              "http://www.w3.org/TR/2001/REC-SVG-20010904/DTD/svg10.dtd">

<svg xmlns="http://www.w3.org/2000/svg"
     width="340.302mm" height="229.69mm"
     viewBox="0 0 1286 868">
  <path id="Selection"
        fill="black" stroke="black" stroke-width="1"
        d="M 464.00,776.00
           C 464.00,776.00 450.00,775.00 450.00,775.00
             434.64,774.82 409.44,771.21 394.00,768.42
             339.78,758.64 293.29,742.64 245.00,715.86
             245.00,715.86 235.00,710.54 235.00,710.54
             223.14,703.32 188.29,678.52 178.00,669.70
             178.00,669.70 159.00,651.00 159.00,651.00
             159.00,651.00 140.91,632.00 140.91,632.00
             140.91,632.00 132.46,623.00 132.46,623.00
             106.09,590.96 82.57,547.58 70.03,508.00
             65.08,492.38 58.75,461.32 57.04,445.00
             57.04,445.00 57.04,435.00 57.04,435.00
             57.04,435.00 56.00,425.00 56.00,425.00
             56.00,425.00 56.00,405.00 56.00,405.00
             56.00,405.00 57.04,393.00 57.04,393.00
             57.04,393.00 57.04,383.00 57.04,383.00
             58.84,365.78 65.04,338.96 69.64,322.00
             69.64,322.00 75.58,305.00 75.58,305.00
             75.58,305.00 81.87,288.00 81.87,288.00
             87.93,273.89 95.71,260.15 103.60,247.00
             121.83,216.62 134.99,201.01 160.00,176.00
             160.00,176.00 178.00,158.30 178.00,158.30
             178.00,158.30 218.00,129.00 218.00,129.00
             218.00,129.00 235.00,117.45 235.00,117.45
             250.10,108.45 266.00,100.91 282.00,93.70
             299.11,85.98 317.04,78.70 335.00,72.96
             427.53,44.88 530.34,45.11 623.00,72.96
             623.00,72.96 649.00,81.95 649.00,81.95
             671.81,90.29 693.77,100.37 715.00,112.14
             715.00,112.14 725.00,117.46 725.00,117.46
             725.00,117.46 742.00,129.00 742.00,129.00
             742.00,129.00 782.00,158.30 782.00,158.30
             782.00,158.30 818.17,195.00 818.17,195.00
             818.17,195.00 826.70,204.00 826.70,204.00
             835.47,214.23 848.12,233.21 855.20,245.00
             863.83,259.39 872.51,274.55 879.13,290.00
             879.13,290.00 883.42,302.00 883.42,302.00
             895.44,334.14 902.43,367.74 904.00,402.00
             904.00,402.00 845.00,402.00 845.00,402.00
             844.69,387.67 840.88,367.02 837.37,353.00
             834.22,340.39 830.44,328.07 825.55,316.00
             817.02,294.95 796.18,260.34 781.68,243.00
             781.68,243.00 772.17,233.00 772.17,233.00
             764.19,224.18 753.86,213.06 745.00,205.29
             735.51,196.97 719.64,185.43 709.00,178.33
             709.00,178.33 693.00,167.46 693.00,167.46
             678.85,158.85 663.20,151.68 648.00,145.15
             648.00,145.15 606.00,129.20 606.00,129.20
             512.11,100.49 405.31,105.32 315.00,144.00
             299.38,150.69 283.62,157.75 269.00,166.45
             255.19,174.67 225.69,195.61 214.00,206.17
             204.77,214.50 196.16,223.79 187.83,233.00
             187.83,233.00 177.46,244.00 177.46,244.00
             168.81,254.56 161.21,266.31 154.20,278.00
             146.65,290.59 139.64,303.42 134.01,317.00
             129.15,328.72 125.70,340.72 122.63,353.00
             112.18,394.80 112.17,433.19 122.63,475.00
             122.63,475.00 126.52,490.00 126.52,490.00
             135.63,517.94 149.37,545.16 166.58,569.00
             166.58,569.00 178.32,585.00 178.32,585.00
             178.32,585.00 187.83,595.00 187.83,595.00
             196.16,604.21 204.77,613.50 214.00,621.83
             229.90,636.19 257.11,655.09 276.00,665.31
             323.12,690.79 369.76,706.71 423.00,713.28
             423.00,713.28 464.00,717.00 464.00,717.00
             464.00,717.00 464.00,776.00 464.00,776.00 Z
           M 133.00,494.00
           C 133.00,494.00 168.00,470.19 168.00,470.19
             168.00,470.19 223.42,432.37 223.42,432.37
             223.42,432.37 247.00,415.99 247.00,415.99
             249.76,414.03 257.32,408.20 260.28,407.64
             264.26,406.88 282.54,413.24 287.83,414.65
             287.83,414.65 323.42,425.18 323.42,425.18
             323.42,425.18 357.17,434.73 357.17,434.73
             357.17,434.73 377.13,440.73 377.13,440.73
             381.25,442.06 385.76,443.75 389.99,441.88
             389.99,441.88 414.00,425.56 414.00,425.56
             414.00,425.56 456.00,396.55 456.00,396.55
             456.00,396.55 489.73,373.58 489.73,373.58
             489.73,373.58 585.00,307.45 585.00,307.45
             585.00,307.45 637.00,271.76 637.00,271.76
             641.00,269.18 652.36,260.12 655.91,259.38
             660.01,258.52 667.59,261.62 671.58,262.92
             671.58,262.92 683.00,266.00 683.00,266.00
             683.00,266.00 698.00,270.73 698.00,270.73
             698.00,270.73 743.58,284.86 743.58,284.86
             743.58,284.86 751.00,286.59 751.00,286.59
             751.00,286.59 785.13,296.76 785.13,296.76
             785.13,296.76 811.00,305.00 811.00,305.00
             809.20,309.73 807.45,309.80 803.58,312.70
             803.58,312.70 785.00,325.51 785.00,325.51
             785.00,325.51 726.99,366.10 726.99,366.10
             726.99,366.10 719.58,370.76 719.58,370.76
             719.58,370.76 554.00,485.31 554.00,485.31
             554.00,485.31 491.99,528.39 491.99,528.39
             491.99,528.39 454.58,554.55 454.58,554.55
             454.58,554.55 437.42,566.18 437.42,566.18
             437.42,566.18 420.00,578.27 420.00,578.27
             417.59,579.99 413.76,583.28 410.83,583.66
             407.91,584.04 402.94,582.11 400.00,581.27
             400.00,581.27 373.00,572.83 373.00,572.83
             373.00,572.83 333.04,560.41 333.04,560.41
             333.04,560.41 300.83,550.26 300.83,550.26
             300.83,550.26 289.00,546.27 289.00,546.27
             289.00,546.27 244.42,532.08 244.42,532.08
             244.42,532.08 222.04,525.41 222.04,525.41
             222.04,525.41 172.00,509.41 172.00,509.41
             172.00,509.41 144.72,500.60 144.72,500.60
             139.40,499.20 134.92,499.79 133.00,494.00 Z
           M 676.00,327.00
           C 665.54,321.93 662.78,327.12 652.58,334.00
             652.58,334.00 608.87,364.17 608.87,364.17
             608.87,364.17 579.73,384.55 579.73,384.55
             579.73,384.55 522.28,423.91 522.28,423.91
             522.28,423.91 464.04,464.35 464.04,464.35
             464.04,464.35 422.00,493.49 422.00,493.49
             416.46,497.18 403.18,504.88 400.00,510.00
             400.00,510.00 367.00,500.39 367.00,500.39
             367.00,500.39 356.27,496.73 356.27,496.73
             356.27,496.73 301.72,481.04 301.72,481.04
             301.72,481.04 282.00,475.45 282.00,475.45
             282.00,475.45 271.00,473.28 271.00,473.28
             271.00,473.28 267.00,475.00 267.00,475.00
             267.00,475.00 267.00,477.00 267.00,477.00
             267.00,477.00 301.00,487.45 301.00,487.45
             301.00,487.45 358.13,505.41 358.13,505.41
             358.13,505.41 388.00,514.59 388.00,514.59
             391.16,515.43 397.01,517.76 400.01,517.31
             405.40,516.52 419.65,505.29 424.58,501.71
             424.58,501.71 432.96,496.25 432.96,496.25
             432.96,496.25 474.27,467.42 474.27,467.42
             474.27,467.42 608.13,374.74 608.13,374.74
             608.13,374.74 653.01,343.59 653.01,343.59
             660.02,338.68 670.21,332.92 676.00,327.00 Z
           M 706.00,808.00
           C 699.71,807.35 694.78,804.54 689.00,802.20
             689.00,802.20 658.00,788.25 658.00,788.25
             621.26,769.88 586.21,749.07 553.00,724.85
             553.00,724.85 521.00,699.61 521.00,699.61
             518.17,697.31 511.07,692.98 511.56,688.91
             511.85,686.53 514.60,683.01 515.98,681.00
             515.98,681.00 526.58,666.00 526.58,666.00
             541.68,644.89 559.29,625.86 578.00,607.96
             636.50,551.98 705.72,507.89 784.00,485.58
             806.82,479.07 830.34,474.64 854.00,472.91
             854.00,472.91 864.00,472.00 864.00,472.00
             902.28,471.56 925.08,472.05 963.00,480.42
             1045.07,498.55 1124.68,546.27 1185.00,603.96
             1185.00,603.96 1197.00,615.00 1197.00,615.00
             1211.50,629.61 1225.03,645.54 1237.37,662.00
             1240.33,665.94 1254.08,684.66 1255.11,687.96
             1256.60,692.75 1250.16,696.25 1247.00,698.80
             1247.00,698.80 1216.00,723.37 1216.00,723.37
             1186.48,745.51 1134.70,777.44 1101.00,792.00
             1101.00,792.00 1074.00,803.80 1074.00,803.80
             1069.96,805.43 1065.38,808.18 1061.00,807.00
             1101.10,782.85 1138.21,753.28 1172.00,720.96
             1172.00,720.96 1202.00,690.00 1202.00,690.00
             1195.55,687.54 1188.97,682.47 1183.00,678.81
             1183.00,678.81 1150.00,659.01 1150.00,659.01
             1119.58,641.14 1088.15,625.19 1056.00,610.70
             1045.69,606.05 1014.87,593.25 1005.00,591.00
             1013.52,602.92 1020.16,621.60 1023.00,636.00
             1035.47,699.36 1004.38,763.50 945.00,790.69
             890.91,815.46 827.60,805.58 784.00,764.91
             773.56,755.17 765.17,743.29 758.01,731.00
             745.63,709.75 740.72,683.34 741.00,659.00
             741.21,641.20 746.87,620.11 754.31,604.00
             754.31,604.00 761.00,591.00 761.00,591.00
             750.68,593.42 715.06,608.63 704.00,613.69
             670.99,628.81 639.31,645.62 608.00,664.01
             608.00,664.01 565.00,690.00 565.00,690.00
             565.00,690.00 596.00,721.99 596.00,721.99
             612.93,738.51 631.33,754.03 650.00,768.58
             650.00,768.58 685.00,793.67 685.00,793.67
             690.91,797.61 701.31,803.63 706.00,808.00 Z
           M 883.00,569.45
           C 869.05,570.61 862.67,570.72 849.00,575.69
             826.99,583.71 806.12,602.73 796.31,624.00
             773.47,673.49 796.29,730.86 847.00,751.40
             855.52,754.85 866.79,757.89 876.00,758.00
             897.21,758.24 910.80,757.23 930.00,746.69
             981.07,718.65 995.75,650.39 958.54,605.00
             938.81,580.94 913.41,570.57 883.00,569.45 Z
           M 762.00,590.00
           C 762.00,590.00 761.00,590.00 761.00,590.00
             761.00,590.00 762.00,591.00 762.00,591.00
             762.00,591.00 762.00,590.00 762.00,590.00 Z
           M 872.00,606.46
           C 894.76,603.32 915.93,609.81 930.69,628.00
             953.46,656.08 943.09,700.15 911.00,716.19
             899.65,721.87 891.25,722.14 879.00,722.00
             838.17,721.52 813.71,677.18 828.45,641.00
             836.04,622.38 852.82,610.61 872.00,606.46 Z
           M 890.02,623.51
           C 881.46,625.59 883.66,634.07 886.90,640.00
             891.75,648.86 907.06,664.26 918.00,663.59
             928.11,662.97 924.01,651.26 920.91,646.00
             915.03,636.06 902.17,623.97 890.02,623.51 Z" />
</svg>
