<svg xmlns="http://www.w3.org/2000/svg" width="2.77778in" height="6.94444in"
     viewBox="0 0 200 500"><path fill="none"/><path d="M 44.00,421.00
           C 44.00,421.00 73.61,385.00 73.61,385.00
             73.61,385.00 132.92,312.00 132.92,312.00
             132.92,312.00 154.00,286.00 154.00,286.00
             157.73,281.36 161.66,276.20 168.00,275.37
             176.30,274.27 184.89,282.46 182.44,292.00
             181.31,296.42 177.62,300.48 174.80,304.00
             174.80,304.00 157.80,325.00 157.80,325.00
             157.80,325.00 110.61,383.00 110.61,383.00
             110.61,383.00 57.92,448.00 57.92,448.00
             53.44,453.40 42.03,469.02 37.00,471.91
             30.22,475.81 21.09,473.40 18.01,465.99
             16.84,463.19 17.00,459.98 17.00,457.00
             17.00,457.00 17.00,44.00 17.00,44.00
             17.01,40.11 16.78,36.51 19.01,33.09
             23.97,25.47 34.87,25.26 40.58,32.10
             44.10,36.32 43.99,40.85 44.00,46.00
             44.00,46.00 44.00,421.00 44.00,421.00 Z"/></svg>