<svg xmlns="http://www.w3.org/2000/svg" width="2.77778in" height="6.94444in"
     viewBox="0 0 200 500"><path fill="none"/><path d="M 154.00,77.00
           C 154.00,77.00 123.39,114.00 123.39,114.00
             123.39,114.00 64.92,186.00 64.92,186.00
             64.92,186.00 43.80,212.00 43.80,212.00
             40.04,216.69 36.44,221.79 30.00,222.63
             20.47,223.89 12.87,213.97 15.65,205.00
             16.85,201.14 21.20,196.22 23.80,193.00
             23.80,193.00 40.08,173.00 40.08,173.00
             40.08,173.00 140.75,49.00 140.75,49.00
             145.27,43.53 155.75,29.17 161.00,26.01
             168.10,21.73 177.61,25.13 180.30,33.00
             181.12,35.41 181.00,38.46 181.00,41.00
             181.00,41.00 181.00,454.00 181.00,454.00
             180.99,457.99 181.26,461.36 178.85,464.82
             173.72,472.20 163.23,472.81 157.42,465.89
             153.90,461.71 154.01,457.11 154.00,452.00
             154.00,452.00 154.00,77.00 154.00,77.00 Z"/></svg>